<svg width="24" height="24" viewBox="0 0 24 24" fill="none" xmlns="http://www.w3.org/2000/svg">
<path d="M11.5 14.8513L14.5 12.9504C15.1667 12.528 15.1667 11.472 14.5 11.0496L11.5 9.14867C10.8333 8.72625 10 9.25428 10 10.0991V13.9009C10 14.7457 10.8333 15.2737 11.5 14.8513Z" fill="#0F2534"/>
<path fill-rule="evenodd" clip-rule="evenodd" d="M22 12C22 17.5228 17.5228 22 12 22C6.47715 22 2 17.5228 2 12C2 6.47715 6.47715 2 12 2C17.5228 2 22 6.47715 22 12ZM20 12C20 16.4183 16.4183 20 12 20C7.58172 20 4 16.4183 4 12C4 7.58172 7.58172 4 12 4C16.4183 4 20 7.58172 20 12Z" fill="#0F2534"/>
</svg>
