<svg width="24" height="24" viewBox="0 0 24 24" fill="none" xmlns="http://www.w3.org/2000/svg">
<path fill-rule="evenodd" clip-rule="evenodd" d="M15.0963 5.90382C12.5578 3.36539 8.44224 3.36539 5.90382 5.90382C3.36539 8.44224 3.36539 12.5578 5.90382 15.0963C8.20844 17.4009 11.8126 17.6131 14.357 15.7331L18.3389 19.715C18.7189 20.095 19.335 20.095 19.715 19.715C20.095 19.335 20.095 18.7189 19.715 18.3389L15.7331 14.357C17.6131 11.8126 17.4009 8.20844 15.0963 5.90382ZM7.27991 7.27991C9.05833 5.50148 11.9417 5.50148 13.7202 7.27991C15.4986 9.05833 15.4986 11.9417 13.7202 13.7202C11.9417 15.4986 9.05833 15.4986 7.27991 13.7202C5.50148 11.9417 5.50148 9.05833 7.27991 7.27991Z" fill="#fff"/>
</svg>
