<?xml version="1.0" standalone="no"?>
<!DOCTYPE svg PUBLIC "-//W3C//DTD SVG 20010904//EN"
 "http://www.w3.org/TR/2001/REC-SVG-20010904/DTD/svg10.dtd">
<svg version="1.0" xmlns="http://www.w3.org/2000/svg"
 width="768.000000pt" height="768.000000pt" viewBox="0 0 768.000000 768.000000"
 preserveAspectRatio="xMidYMid meet">
<metadata>
Created by potrace 1.14, written by Peter Selinger 2001-2017
</metadata>
<g transform="translate(0.000000,768.000000) scale(0.100000,-0.100000)"
fill="#000000" stroke="none">
<path d="M1017 7664 c-1 -2 -25 -6 -52 -9 -28 -4 -66 -14 -85 -22 -82 -33
-110 -47 -110 -55 0 -4 -7 -8 -15 -8 -7 0 -45 -30 -82 -67 -136 -135 -199
-327 -168 -512 4 -22 7 -43 6 -46 0 -2 11 -31 24 -64 38 -98 111 -196 190
-257 39 -30 142 -80 180 -88 l31 -7 -1 -2686 0 -2686 -40 -12 c-43 -12 -134
-56 -162 -77 -9 -7 -46 -43 -82 -79 -83 -82 -137 -188 -156 -304 -5 -33 -7
-139 -2 -170 13 -86 69 -235 88 -235 5 0 9 -7 9 -15 0 -19 93 -113 150 -152
57 -38 101 -58 170 -77 59 -15 61 -16 143 -16 81 0 173 16 183 31 3 5 11 9 19
9 8 0 40 15 72 34 181 108 283 295 278 508 -2 51 -6 107 -9 123 -6 28 -2 32
50 63 31 17 60 32 65 32 5 0 9 5 9 10 0 6 4 10 10 10 5 0 39 18 75 40 36 22
67 40 70 40 2 0 24 14 48 30 25 17 50 30 56 30 6 0 11 5 11 10 0 6 4 10 9 10
8 0 282 158 307 177 5 4 19 13 30 19 14 8 345 203 464 274 8 5 62 37 120 71
58 35 118 70 133 78 16 9 36 21 45 26 9 6 62 37 117 69 55 33 170 101 257 153
86 51 161 93 167 93 6 0 11 4 11 9 0 5 19 18 43 30 23 12 56 30 72 41 17 11
42 25 58 31 15 6 27 15 27 20 0 5 4 9 9 9 5 0 87 46 183 103 95 57 274 163
398 236 124 73 242 144 262 157 21 13 40 24 44 24 3 0 29 15 57 33 59 38 247
150 262 156 5 2 28 16 50 30 22 14 49 31 60 37 11 6 36 20 55 31 86 50 115 67
120 73 3 3 16 11 30 17 39 19 108 59 122 71 11 9 58 37 163 96 11 6 39 24 62
39 24 15 45 27 48 27 4 0 26 14 51 30 24 17 44 28 44 25 0 -4 7 1 16 9 8 9 21
16 29 16 7 0 15 4 17 8 3 8 98 68 132 83 12 5 35 18 53 29 29 17 33 17 45 3
44 -53 202 -140 272 -150 207 -29 370 21 502 152 55 55 107 132 125 186 7 19
15 39 19 44 26 36 34 233 14 314 -8 31 -17 63 -20 71 -3 8 -5 16 -5 17 0 2
-11 24 -26 50 -59 108 -133 184 -228 235 -223 119 -471 84 -662 -95 l-31 -29
-29 20 c-15 11 -44 29 -64 40 -76 42 -84 47 -89 52 -3 3 -16 11 -29 18 -51 29
-90 52 -201 118 -63 38 -127 75 -142 83 -16 8 -28 18 -28 23 0 4 -5 8 -11 8
-10 0 -219 121 -464 269 -94 57 -117 70 -162 93 -24 12 -43 26 -43 30 0 4 -4
8 -9 8 -6 0 -62 32 -127 70 -64 39 -121 70 -125 70 -5 0 -9 5 -9 10 0 6 -4 10
-9 10 -12 0 -155 83 -159 92 -2 5 -8 8 -13 8 -5 0 -38 18 -74 40 -36 22 -70
40 -75 40 -6 0 -10 4 -10 9 0 5 -8 11 -17 14 -10 4 -34 16 -55 29 -20 13 -82
50 -138 83 -56 33 -118 70 -138 82 -20 12 -44 25 -52 29 -8 4 -26 15 -40 25
-28 19 -320 192 -334 198 -5 2 -106 62 -224 132 -118 71 -216 129 -219 129 -3
0 -17 8 -31 19 -15 10 -43 27 -62 37 -56 31 -382 225 -412 245 -15 11 -29 19
-32 19 -6 0 -389 227 -403 240 -7 5 -15 10 -18 10 -3 0 -96 54 -206 120 -111
66 -203 120 -205 120 -1 0 -18 10 -36 23 l-33 22 11 63 c9 49 12 207 4 207 -1
0 -3 12 -5 26 -4 35 -56 163 -67 167 -4 2 -8 8 -8 14 0 20 -85 116 -137 154
-74 54 -128 80 -203 98 -58 14 -166 26 -173 20z m493 -959 c7 -8 16 -15 21
-15 10 0 114 -60 186 -106 28 -19 54 -34 57 -34 3 0 37 -20 76 -45 39 -25 72
-45 74 -45 2 0 96 -55 207 -121 112 -67 224 -133 249 -147 25 -14 56 -33 70
-42 14 -9 30 -19 35 -21 6 -2 69 -39 140 -82 72 -43 137 -82 145 -87 8 -4 49
-28 90 -53 41 -24 154 -90 250 -147 96 -56 199 -118 227 -136 29 -19 55 -34
59 -34 3 0 26 -13 51 -30 24 -16 46 -30 48 -30 2 0 50 -28 107 -62 56 -34 112
-66 123 -73 19 -10 87 -50 183 -108 26 -15 62 -35 80 -44 17 -9 32 -20 32 -25
0 -4 4 -8 9 -8 5 0 56 -28 113 -61 97 -58 132 -78 189 -111 13 -7 31 -18 39
-24 8 -6 35 -23 60 -36 25 -14 153 -90 285 -168 132 -79 254 -151 270 -160 17
-9 122 -72 233 -139 112 -66 206 -121 209 -121 2 0 24 -13 48 -30 24 -16 46
-30 48 -30 3 0 45 -24 94 -54 48 -29 156 -93 238 -141 150 -88 168 -102 159
-117 -3 -5 -8 -20 -10 -35 -3 -15 -7 -29 -9 -32 -2 -3 -576 -6 -1277 -6
l-1273 0 -21 60 c-68 198 -215 340 -407 389 -65 16 -210 15 -267 -3 -45 -14
-47 -14 -54 7 -3 9 -19 40 -36 67 -17 28 -35 59 -40 70 -6 11 -26 47 -45 80
-20 33 -42 74 -51 90 -8 17 -24 46 -35 65 -25 42 -137 238 -171 300 -14 25
-35 62 -47 83 -12 21 -39 70 -61 108 -22 39 -40 73 -40 75 0 2 -11 21 -23 42
-13 20 -36 60 -52 87 -53 96 -89 160 -106 193 -10 18 -22 38 -27 45 -5 7 -24
39 -42 72 -31 58 -102 184 -120 215 -5 8 -23 42 -41 75 -17 33 -36 65 -41 72
-5 7 -17 27 -27 45 -10 18 -28 51 -40 73 -13 22 -33 58 -44 80 -12 22 -24 42
-27 45 -3 3 -12 19 -20 35 -8 17 -24 46 -36 65 -11 19 -38 66 -58 104 -36 66
-37 69 -19 89 10 12 23 27 28 34 13 16 20 16 35 -2z m-232 -232 c22 -38 54
-95 72 -128 18 -33 57 -100 85 -150 28 -49 55 -97 58 -105 4 -8 19 -36 35 -61
15 -26 62 -109 105 -185 43 -77 91 -161 108 -189 16 -27 34 -60 39 -72 5 -12
20 -39 33 -60 13 -21 41 -69 62 -108 21 -38 43 -79 49 -90 6 -11 13 -22 16
-25 3 -3 12 -18 20 -35 8 -16 24 -46 36 -65 12 -20 35 -60 51 -90 16 -30 40
-73 52 -95 13 -22 66 -116 119 -210 52 -93 104 -182 114 -197 11 -16 16 -28
12 -28 -4 0 -1 -8 7 -17 8 -10 19 -28 26 -39 6 -12 41 -74 77 -138 l65 -116
-26 -28 c-213 -227 -217 -577 -10 -801 l36 -39 -30 -59 c-17 -32 -38 -65 -45
-74 -8 -8 -14 -19 -14 -22 0 -6 -141 -261 -208 -377 -12 -19 -35 -62 -53 -95
-17 -33 -38 -67 -45 -76 -8 -8 -14 -18 -14 -22 0 -7 -281 -509 -290 -517 -3
-3 -18 -32 -35 -65 -16 -33 -33 -62 -36 -65 -3 -3 -23 -36 -44 -75 -21 -38
-46 -83 -55 -100 -19 -33 -274 -486 -327 -580 -19 -33 -37 -68 -40 -78 -3 -9
-9 -17 -14 -17 -5 0 -9 -6 -9 -13 0 -29 -21 -35 -65 -21 l-42 15 1 2681 1
2681 24 4 c14 2 27 6 30 8 15 15 34 -2 69 -62z m4722 -2759 c5 -5 12 -28 16
-50 5 -37 4 -43 -15 -49 -12 -3 -49 -24 -84 -46 -34 -21 -69 -42 -77 -46 -14
-6 -175 -101 -210 -123 -8 -5 -44 -26 -80 -47 -36 -20 -67 -39 -70 -42 -3 -4
-18 -13 -35 -21 -16 -8 -41 -22 -55 -31 -51 -33 -85 -53 -90 -54 -3 0 -16 -8
-30 -16 -51 -33 -212 -129 -215 -129 -3 0 -134 -77 -185 -110 -28 -17 -210
-125 -238 -140 -15 -9 -38 -23 -52 -31 -41 -26 -422 -252 -460 -272 -19 -11
-47 -28 -62 -38 -14 -11 -28 -19 -31 -19 -3 0 -53 -29 -112 -65 -58 -36 -122
-74 -143 -85 -20 -11 -52 -29 -69 -40 -18 -11 -46 -28 -63 -37 -16 -10 -89
-54 -162 -97 -307 -182 -354 -210 -375 -220 -13 -6 -23 -14 -23 -18 0 -5 -4
-8 -10 -8 -5 0 -39 -18 -75 -40 -36 -22 -67 -40 -70 -40 -2 0 -24 -13 -48 -30
-25 -16 -48 -30 -51 -30 -3 0 -29 -15 -58 -33 -29 -19 -74 -45 -99 -59 -67
-38 -92 -52 -103 -61 -15 -11 -429 -257 -434 -257 -1 0 -28 -16 -58 -35 -30
-19 -56 -35 -58 -35 -5 0 -271 -159 -283 -170 -7 -5 -15 -10 -18 -10 -3 0 -55
-30 -116 -66 -61 -37 -114 -62 -117 -58 -4 5 -18 21 -31 36 l-24 27 29 48 c38
64 82 142 97 173 6 14 14 27 17 30 3 3 16 25 30 50 13 25 34 63 47 85 12 22
26 47 30 55 4 8 26 48 50 88 24 40 43 74 43 76 0 2 29 54 65 116 36 62 65 114
65 115 0 2 22 42 50 90 28 48 50 89 50 93 0 3 6 13 14 21 7 9 31 49 52 89 22
39 44 80 49 90 6 9 41 73 79 142 39 69 73 127 78 128 4 2 8 8 8 13 0 5 59 113
130 240 72 127 130 235 130 240 0 5 4 9 8 9 5 0 14 16 22 35 8 19 17 35 22 35
4 0 8 5 8 10 0 12 99 188 110 195 3 2 27 -2 51 -9 51 -16 274 -13 274 3 0 2 9
4 20 6 11 2 49 19 85 36 125 62 259 227 285 349 4 19 11 40 15 45 11 13 2546
13 2560 -1z"/>
</g>
</svg>
